<?xml version="1.0" encoding="UTF-8"?>
<svg width="931px" height="509px" viewBox="0 0 931 509" version="1.1" xmlns="http://www.w3.org/2000/svg" xmlns:xlink="http://www.w3.org/1999/xlink">
    <!-- Generator: Sketch 63.1 (92452) - https://sketch.com -->
    <title>Logo_v2.2</title>
    <desc>Created with Sketch.</desc>
    <g id="Symbols" stroke="none" stroke-width="1" fill="none" fill-rule="evenodd">
        <g id="Logo_v2.2" transform="translate(-16.000000, 0.000000)">
            <text id="DUCK" font-family="Helvetica" font-size="175" font-weight="normal" fill="#430000">
                <tspan x="9" y="320">DUC</tspan>
                <tspan x="9" y="530">K</tspan>
            </text>
            <text id="NETS" font-family="Helvetica" font-size="175" font-weight="normal" fill="#430000">
                <tspan x="544" y="320">NETS</tspan>
            </text>
            <text id="html,-css,-javascrip" font-family="Helvetica" font-size="32" font-weight="normal" fill="#430000">
                <tspan x="16.875" y="360">HTML, CSS, JAVASCRIPT</tspan>
            </text>
            <text id="true-webmaster" font-family="Helvetica" font-size="32" font-weight="normal" fill="#430000">
                <tspan x="860.890625" y="360">TRUE </tspan>
                <tspan x="741.765625" y="398">WEBMASTER</tspan>
            </text>
            <g id="Duck/Default" transform="translate(411.000000, 0.000000)">
                <g id="Duck">
                    <g id="Laptop" transform="translate(138.125000, 306.796875)">
                        <path d="M14.8089297,92.8119316 C17.0798672,105.435428 20.4872891,118.058924 20.4872891,118.058924 C20.4872891,118.058924 27.1568984,109.880994 30.8253359,108.772342 C34.4937734,107.663689 39.7933047,113.23285 39.7933047,113.23285 C39.7933047,113.23285 39.4144766,96.5253691 47.7436172,95.4107402 C56.0717422,94.2971074 65.1565078,109.147869 65.1565078,109.147869 L68.9427578,108.777322 L107.554789,80.437459 C107.554789,80.437459 120.328251,67.7099551 117.55661,61.4056778 C112.793329,50.57017 89.0035629,13.9064026 84.1679382,7.14288712 C79.3323135,0.379371643 65.1565078,-1.80785179 56.2660217,3.02962303 C47.3755356,7.86709785 2.05369531,39.7111699 2.05369531,39.7111699 C2.05369531,39.7111699 12.5369766,80.1884355 14.8089297,92.8119316 Z" id="Fill-2-Copy" fill="#FFFFFF"></path>
                        <path d="M14.8089297,92.8119316 C17.0798672,105.435428 20.4872891,118.058924 20.4872891,118.058924 C20.4872891,118.058924 27.1568984,109.880994 30.8253359,108.772342 C34.4937734,107.663689 39.7933047,113.23285 39.7933047,113.23285 C39.7933047,113.23285 39.4144766,96.5253691 47.7436172,95.4107402 C56.0717422,94.2971074 65.1565078,109.147869 65.1565078,109.147869 L68.9427578,108.777322 L107.554789,80.437459 C107.554789,80.437459 116.636508,72.3850371 113.864867,66.0807598 C109.101586,55.245252 79.0370547,11.6263066 79.0370547,11.6263066 C79.0370547,11.6263066 71.7113516,1.83968555 59.5969766,8.52247852 C47.4836172,15.2052715 2.05369531,39.7111699 2.05369531,39.7111699 C2.05369531,39.7111699 12.5369766,80.1884355 14.8089297,92.8119316 Z" id="Fill-2" fill="#CCCCCC"></path>
                        <path d="M4.32971094,35.4691055 C4.32971094,35.4691055 18.4631484,61.3775039 21.9965078,75.2391445 C25.1723672,87.696293 38.3368984,106.197738 38.3368984,106.197738 L29.2511172,107.10518 L20.1653359,114.613734 L0.479476562,36.3944766 L4.32971094,35.4691055 Z" id="Fill-3" fill="#AFAFAF"></path>
                        <path d="M55.5470703,60.8541562 C57.7773828,64.6950937 56.6195703,67.8487266 53.5280078,69.5759531 C50.4364453,71.3031797 47.0798047,70.6706602 44.8494922,66.8297227 C42.6191797,62.9897812 43.1991016,56.9265586 45.4517578,55.6684922 C47.6769922,54.4243711 53.3167578,57.0132187 55.5470703,60.8541562" id="Fill-5" fill="#AFAFAF"></path>
                    </g>
                    <path d="M181.321969,403.571068 C179.302906,408.769682 178.040484,413.47224 178.040484,413.47224 C178.040484,413.47224 172.236188,411.244975 168.702828,413.47224 C165.169469,415.700502 159.112281,420.898119 159.112281,420.898119 C159.112281,420.898119 155.074156,409.511771 151.036031,388.471283 C146.997906,367.431791 139.426422,342.678861 139.426422,342.678861 L163.402281,328.322162 C163.402281,328.322162 142.706891,313.222377 134.630641,309.261908 C128.373375,306.192943 121.815484,302.381889 118.356266,299.094779 L116.400172,301.41767 C116.400172,301.41767 107.819156,313.300072 85.1047031,313.795131 C77.657125,313.957494 71.8612292,309.388295 65.1408386,306.170912 C62.6505261,312.377572 58.3795469,320.398236 56.6438437,321.391342 C53.61525,323.123549 34.9389219,332.282631 22.0668906,350.10474 C9.195875,367.92685 1.119625,385.2539 3.3905625,399.362572 C5.66251562,413.47224 12.7292344,427.333881 16.7673594,430.799291 C20.8054844,434.264701 29.6393906,438.22517 32.6679844,436.988021 C35.6965781,435.749877 40.2394688,439.463314 40.2394688,439.463314 C40.2394688,439.463314 48.3157188,449.611518 55.8872031,452.829896 C63.4586875,456.047279 76.8344687,462.483041 98.2875156,462.483041 C119.740562,462.483041 145.988375,460.007748 152.802203,453.076928 C159.617047,446.146107 163.150406,437.48308 161.887984,432.284467 C160.626578,427.08685 166.683766,435.007787 169.712359,436.739994 C172.740953,438.473197 177.535719,440.453432 179.554781,436.244936 C181.573844,432.037436 181.826734,430.057201 187.126266,431.542377 C192.426813,433.027553 204.541188,434.264701 205.045953,422.136264 C205.550719,410.00683 199.241656,402.828979 192.931578,401.095775 C192.931578,401.095775 183.341031,398.372455 181.321969,403.571068 Z" id="Body" fill="#FFAB29"></path>
                    <g id="Blik" transform="translate(41.640625, 96.621094)" fill="#FFFFFF">
                        <path d="M8.98143768,1.56515121 C4.25177256,17.3074532 1.761144,26.1450291 1.509552,28.077879 C1.132164,30.9771538 -0.234069824,39.7659302 1.132164,40.9239864 C2.49839783,42.0820427 6.38534546,42.561121 8.98143768,38.8184738 C10.7121658,36.3233757 14.0225347,26.2510586 18.9125443,8.60152245 C20.7408015,3.93168449 20.7408015,1.26603127 18.9125443,0.604562759 C17.084287,-0.0569057465 13.7739182,0.263290405 8.98143768,1.56515121 Z" id="Path-2"></path>
                        <path d="M83.0439097,3.58195224 C78.9269377,17.9838045 76.7589516,26.068865 76.5399514,27.8371336 C76.2114513,30.4895365 75.0222029,38.5299527 76.2114513,39.5894011 C77.4006996,40.6488494 80.784122,41.0871344 83.0439097,37.6631718 C84.5504349,35.3805302 87.43197,26.1658661 91.688515,10.0191797 C93.2799351,5.74697631 93.2799351,3.30830221 91.688515,2.70315744 C90.097095,2.09801267 87.2155599,2.39094427 83.0439097,3.58195224 Z" id="Path-2-Copy"></path>
                    </g>
                    <path d="M105.930297,277.782955 C109.223969,286.564518 114.935844,293.719459 116.206391,296.389986 C116.604516,297.226705 117.351,298.138131 118.356469,299.094381 L118.356469,299.094381 L116.400375,301.418268 C116.400375,301.418268 107.819359,313.299674 85.1049063,313.794732 C77.6573281,313.957096 70.1559219,311.618268 63.4355313,308.399889 C65.2910781,303.777018 67.1049844,298.923053 68.5055313,295.647896 C69.746625,292.745279 70.8069375,288.957135 71.6600625,284.833307 L71.6600625,284.833307 Z M96.0159688,205.793865 C96.0159688,205.793865 103.082688,253.567518 103.587453,266.9341 C103.728625,270.685389 104.645734,274.357986 105.9305,277.782557 L105.9305,277.782557 L71.65925,284.832908 C73.0608125,278.05449 73.90175,270.367635 74.0581563,264.210779 C74.3059891,254.507631 67.2811929,212.711797 67.0001019,211.043845 L66.9914375,210.992479 Z M78.0966875,24.3539941 C78.0966875,24.3539941 83.6491094,22.3737598 93.9973125,26.0871973 C104.3445,29.7996387 111.411219,41.4340137 116.207,55.5426855 C121.001766,69.6523535 119.992234,93.6621973 119.992234,93.6621973 L119.992234,93.6621973 L108.13075,129.802471 C108.13075,129.802471 97.5306719,123.118682 85.6681719,123.366709 C73.8056719,123.61374 55.887,141.188818 55.887,141.188818 L55.887,141.188818 L53.3631719,138.960557 C53.3631719,138.960557 60.177,125.593975 62.9537187,116.435889 C65.7294219,107.276807 61.1865313,97.1276074 61.1865313,97.1276074 L61.1865313,97.1276074 L44.5292656,98.6127832 L44.5300544,83.3449899 C44.5450408,81.2273937 44.8447695,59.6516719 50.8393437,43.6612793 C57.1484063,26.8292871 78.0966875,24.3539941 78.0966875,24.3539941 Z" id="Head-and-Neck" fill="#FFCA61"></path>
                    <path d="M67.4961016,132.524895 C61.6918047,138.218566 56.3912578,144.901359 46.2959453,146.386535 C36.2006328,147.871711 26.8629766,149.356887 26.1053203,153.317355 C25.3486797,157.277824 22.3200859,165.198762 28.1243828,169.15923 C33.9296953,173.119699 46.8007109,170.892434 49.0726641,172.129582 C51.3436016,173.367727 54.3721953,187.724426 60.6822734,190.941809 C66.9913359,194.160188 66.7394609,195.892395 69.0103984,199.605832 C71.2823516,203.318273 71.5342266,206.783684 77.3395391,206.289621 C83.1438359,205.793566 88.4443828,200.100891 97.0253984,201.586066 C105.606414,203.071242 107.373602,206.041594 110.402195,205.051477 C113.430789,204.061359 117.468914,197.37757 118.225555,194.902277 C118.983211,192.426984 122.768445,172.129582 124.787508,170.644406 C126.80657,169.15923 137.911414,171.387492 141.949539,169.15923 C145.987664,166.931965 159.11157,155.792648 151.540086,146.634562 C143.968602,137.47548 127.059461,140.198801 127.059461,140.198801 C127.059461,140.198801 117.468914,138.218566 107.373602,131.039719 C97.2782891,123.860871 89.4539141,124.108898 89.4539141,124.108898 C79.3586016,124.850988 73.3014141,126.832219 67.4961016,132.524895 Z" id="Mouth" fill="#FF7F00"></path>
                    <path d="M108.164672,377.171795 C109.804906,376.134861 111.949906,376.901854 112.94725,378.401971 C114.147719,380.207889 115.349203,382.012811 116.549672,383.818729 C117.618109,385.425428 116.822875,387.543123 115.296391,388.509334 C113.655141,389.546268 111.511156,388.779275 110.513812,387.279158 C109.312328,385.47324 108.111859,383.668318 106.911391,381.8624 C105.841937,380.255701 106.637172,378.138006 108.164672,377.171795 Z M72.5593984,143.03707 C73.7751016,141.608672 76.2593203,141.817852 77.5024453,143.03707 C78.9222891,144.429609 78.7110391,146.464629 77.5024453,147.885059 C77.2820547,148.145039 76.9164297,147.983672 76.5172891,147.638027 C75.8997891,147.102129 75.3787734,147.658945 75.0253359,148.390078 C73.7466641,151.025742 72.7838516,155.749219 72.7838516,155.749219 C72.7838516,155.749219 70.5616641,154.73918 70.1107266,152.940234 C69.2078359,149.331387 70.1564297,145.860996 72.5593984,143.03707 Z M95.0582344,141.396205 C96.32675,140.042514 98.6728438,140.125189 99.9738594,141.369311 C101.368313,142.736947 102.763781,144.10558 104.15925,145.474213 C105.580109,146.826908 104.196828,150.358061 104.196828,150.358061 C104.196828,150.358061 101.678078,146.161518 97.8400313,145.060834 C97.2895625,144.903451 96.7756563,144.76101 96.6070625,145.2989 C96.3308125,146.179447 95.8433125,147.014174 95.0582344,146.245189 C93.6769844,144.889506 93.7775313,142.764838 95.0582344,141.396205 Z M62.6582734,427.458691 C62.6389766,427.467656 62.6186641,427.475625 62.5993672,427.48459 C62.6003828,427.482598 62.6024141,427.480605 62.6034297,427.479609 C62.6328828,427.44873 62.6420234,427.434785 62.6603047,427.413867 C62.6796016,427.406895 62.6826484,427.422832 62.6582734,427.458691 L62.6582734,427.458691 Z M62.5323359,427.559297 L62.5323359,427.559297 C62.5323359,427.559297 62.5333516,427.558301 62.5333516,427.558301 C62.5333516,427.559297 62.5323359,427.559297 62.5323359,427.559297 L62.5323359,427.559297 Z M62.5282734,427.569258 C62.5252266,427.573242 62.5191328,427.578223 62.5171016,427.582207 C62.5221797,427.578223 62.5252266,427.573242 62.5282734,427.568262 L62.5282734,427.569258 Z M62.5181172,427.603125 L62.5160859,427.603125 C62.5211641,427.59416 62.5231953,427.588184 62.5242109,427.580215 C62.5221797,427.588184 62.5201484,427.595156 62.5181172,427.603125 L62.5181172,427.603125 Z M62.4104609,427.697754 C62.3850703,427.717676 62.3647578,427.735605 62.3342891,427.758516 C62.3606953,427.738594 62.3860859,427.709707 62.4124922,427.683809 C62.4114766,427.688789 62.4114766,427.692773 62.4104609,427.697754 L62.4104609,427.697754 Z M62.3992891,427.793379 C62.3627266,427.850156 62.3485078,427.860117 62.4023359,427.760508 C62.4013203,427.772461 62.4003047,427.783418 62.3992891,427.793379 L62.3992891,427.793379 Z M70.0484688,432.575625 C70.9483125,432.289746 71.9304219,432.500918 72.7419063,432.92127 C73.4985469,433.312734 74.1251875,434.175352 74.348625,434.970234 C74.5619063,435.732246 74.5040156,436.946484 73.9962031,437.611875 C73.2974531,438.526289 72.5987031,439.440703 71.8999531,440.355117 C71.3240938,441.10916 70.7309688,441.638086 69.8108125,441.930938 C68.9109688,442.21582 67.9288594,442.005645 67.117375,441.585293 C66.36175,441.192832 65.7340938,440.331211 65.5106563,439.536328 C65.297375,438.774316 65.3552656,437.560078 65.8630781,436.894688 L65.8630781,436.894688 L67.9593281,434.151445 C68.5362031,433.397402 69.1283125,432.86748 70.0484688,432.575625 Z M60.9063203,420.870527 C62.8197578,420.451172 64.5991328,421.427344 65.2054609,423.265137 C65.7671016,424.967461 64.5513984,427.090137 62.7649141,427.482598 C62.7141328,427.491562 62.6663984,427.5075 62.6166328,427.519453 L62.6166328,427.519453 L62.6044453,427.52543 C62.6054609,427.524434 62.6054609,427.523438 62.6064766,427.522441 C62.5892109,427.526426 62.5719453,427.53041 62.5546797,427.535391 C62.5475703,427.542363 62.5414766,427.549336 62.5353828,427.557305 C62.5567109,427.547344 62.5810859,427.536387 62.6034297,427.52543 C62.5831172,427.547344 62.5536641,427.575234 62.5221797,427.604121 C62.5272578,427.605117 62.5363984,427.606113 62.5363984,427.606113 L62.5363984,427.606113 L62.5363984,427.607109 L62.5160859,427.613086 C62.5049141,427.632012 62.4835859,427.638984 62.4744453,427.655918 C62.4815547,427.649941 62.5028828,427.641973 62.5089766,427.636992 C62.5099922,427.635 62.5191328,427.633008 62.5272578,427.632012 C62.5120234,427.659902 62.4896797,427.686797 62.4795234,427.714688 C62.4063984,429.585352 60.8717891,430.961953 58.9959297,431.044629 C57.1221016,431.126309 55.4808516,429.410039 55.5001484,427.616074 C55.5336641,424.508262 57.7588984,421.561816 60.9063203,420.870527 Z M136.640055,418.701932 C141.145367,418.701932 141.138258,425.558045 136.640055,425.558045 C132.134742,425.558045 132.141852,418.701932 136.640055,418.701932 Z M133.660313,384.497068 C135.327969,383.443201 137.408984,384.253025 138.442891,385.727244 C139.156875,386.745252 139.871875,387.76326 140.585859,388.781268 C141.693906,390.362068 140.827578,392.52658 139.331563,393.471873 C137.663906,394.526736 135.583906,393.716912 134.548984,392.241697 C133.835,391.223689 133.121016,390.205682 132.406016,389.187674 C131.297969,387.607869 132.165313,385.442361 133.660313,384.497068 Z M247.402492,382.96418 C239.780227,388.192676 214.182414,405.202969 205.795383,410.510156 C205.792336,410.512148 205.789289,410.511152 205.788273,410.508164 C204.994055,408.903457 204.139914,407.315684 203.462492,406.403262 C200.494836,402.322266 196.789836,398.354824 191.634523,397.095762 C187.162727,396.003047 182.386242,397.060898 179.290617,400.509375 C177.20757,402.830273 176.084289,405.720938 175.616086,408.852656 C175.61507,408.855645 175.612023,408.857637 175.609992,408.856641 C171.477414,407.93127 167.345852,409.65252 164.159836,412.193555 C162.89132,413.20459 161.68882,414.382969 160.654914,415.686855 C160.651867,415.689844 160.646789,415.688593 160.645773,415.684863 C160.390852,414.685781 160.143039,413.690684 159.913508,412.698574 C158.235695,405.474902 156.677727,398.226328 155.109602,390.979746 C154.433195,387.853008 153.753742,384.719297 153.06007,381.583594 C153.06007,381.581602 153.06007,381.580605 153.061086,381.579609 C153.319055,381.407285 151.691008,374.551172 151.488898,374.584043 C151.486867,374.585039 151.485852,374.584043 151.485852,374.582051 C148.21757,360.308027 148.377023,359.132637 143.389906,345.400488 C143.389906,345.398496 143.389906,345.395508 143.392336,345.394512 C147.560461,343.322637 160.847883,334.029082 166.127102,330.355488 L166.135227,330.363457 L200.14343,309.200449 C200.14343,309.200449 200.14343,309.200449 200.14343,309.200449 C200.153586,309.195469 211.756086,303.387246 219.577414,314.336309 C227.400773,325.289355 250.871867,364.274473 250.872883,364.275469 C250.872883,364.276465 256.425305,376.776445 247.402492,382.96418 M200.501945,426.430723 C196.917805,431.409199 189.485461,431.708027 185.470695,427.128984 C185.46968,427.128984 185.46968,427.127988 185.46968,427.127988 C184.569836,424.741348 183.750227,422.168437 183.192648,419.545723 C183.192648,419.544727 183.192648,419.544727 183.192648,419.544727 C182.774211,418.666172 182.491867,414.106055 182.480695,414.100078 C182.480695,414.099082 182.480695,414.099082 182.480695,414.099082 C182.40757,412.264277 182.52132,410.448398 182.898117,408.700254 C183.490227,405.952031 185.012648,403.5375 188.153977,403.520459 C191.766555,403.500645 194.593039,406.266797 196.664914,408.863613 C200.474523,413.637891 204.647727,420.671309 200.501945,426.430723 M176.933352,434.641523 C175.166164,436.822969 173.31468,435.473262 171.497727,433.96418 C167.871945,430.953984 162.352023,426.313184 165.256711,421.208203 C166.470383,419.07457 168.758586,416.805469 171.10468,415.907988 C171.114836,415.931895 171.122961,415.954805 171.134133,415.979707 C173.188742,420.294785 177.304055,424.386738 178.168352,429.154043 C178.497414,430.97291 178.137883,433.153359 176.933352,434.641523 M157.076867,440.918906 C155.754523,446.370527 151.612805,450.09293 146.68093,452.563242 C135.385148,458.218066 120.857648,458.654355 108.469055,459.159375 C98.3229609,459.57375 87.9280391,459.167344 77.9485078,457.04168 C77.9485078,457.043672 71.5978047,455.424023 71.5988203,455.422031 C69.1562422,454.695879 66.7461641,453.85916 64.3838203,452.879004 C52.9610859,448.140586 42.4920234,440.215664 36.0560078,429.708867 C33.4092891,425.386816 31.6735859,420.799805 30.7209297,416.081309 C30.5411641,415.282441 30.3786641,414.369023 30.2903047,413.54625 C29.3386641,406.815645 29.9185859,399.868887 31.7426484,393.072539 C35.7076484,378.303457 43.9179609,365.056406 50.7216328,351.449766 C53.0230391,346.847812 55.0421016,342.184102 56.8509297,337.462617 C57.1149922,336.665742 57.6309297,335.259258 58.1367109,334.012148 C61.1653047,325.605117 63.5489766,317.149277 66.2860859,308.766152 C66.3297578,308.63168 66.4993672,308.589844 66.6039766,308.685469 C79.1804609,320.187363 105.502414,319.92041 118.094133,303.871348 C118.29218,303.72293 118.355148,303.738867 118.514602,303.936094 C132.021398,326.281465 139.096242,351.533437 144.83757,376.769473 C147.999211,390.662988 150.794211,404.634199 154.10718,418.493848 C155.810383,425.615918 158.86132,433.56375 157.076867,440.918906 M29.1639766,433.462148 L29.1639766,433.462148 C27.8426484,433.165313 26.5487422,432.726035 25.3198359,432.165234 C22.8599922,431.042637 20.6499922,429.461836 18.7050703,427.61707 C14.7065547,423.824941 11.7602266,418.968984 9.97475781,413.817187 C6.06764844,402.54041 6.77046094,390.312363 10.3180391,379.040566 C16.9978047,357.816797 33.3849141,341.691035 50.8272578,328.187988 C51.6275703,327.567422 52.7650703,328.352344 52.4390547,329.299629 C52.1475703,330.147305 51.8499922,330.992988 51.5463203,331.835684 C51.2284297,332.717227 49.4642891,337.828184 48.0627266,340.822441 C45.2240547,346.88666 39.1028828,359.324883 32.2890547,374.238398 C28.6510859,382.19918 25.9363203,387.563145 24.3387422,396.145488 C23.0133516,403.261582 22.3826484,408.583711 23.7212422,416.730762 C23.7212422,416.731758 23.7222578,416.732754 23.7222578,416.732754 C24.4301484,420.545801 25.5747578,424.305059 27.2454609,427.955742 C27.9919453,429.586348 28.8338984,431.168145 29.7510078,432.706113 C29.9876484,433.102559 29.6169453,433.579687 29.1639766,433.462148 M73.8179609,292.623457 C73.8514766,292.512891 73.9733516,292.457109 74.0810078,292.503926 C76.5276484,293.553809 79.4831172,294.118594 81.3721797,294.597715 C86.0582734,295.786055 91.0683516,296.548066 95.9169453,296.485312 C100.652805,296.422559 105.359211,295.37168 108.923039,292.770879 C109.012414,292.706133 109.13632,292.728047 109.195227,292.819687 C110.450539,294.780996 111.779992,296.699473 113.137883,298.591055 C113.216086,298.699629 113.216086,298.846055 113.138898,298.953633 C103.014133,313.08123 82.5086641,314.489707 70.1332734,302.480801 C70.0520234,302.402109 70.0306953,302.280586 70.0804609,302.17998 C71.6049141,299.068184 72.8378828,295.876699 73.8179609,292.623457 M68.9460078,191.549824 C68.9460078,191.549824 68.9460078,191.549824 68.9460078,191.549824 C68.2584297,191.265937 66.9371016,190.713105 65.6167891,189.942129 C60.5417109,186.644062 57.1698359,180.295957 55.8099141,174.518613 C54.4205391,168.615762 53.2647578,162.383203 47.8707734,158.663789 C43.3898359,155.573906 37.6911641,155.177461 33.4885078,158.863008 C30.1278047,161.810449 35.0860859,166.645488 38.4325703,163.710996 C41.7688984,160.784473 45.0981172,165.032813 46.7921797,168.419531 C46.7931953,168.42252 46.7911641,168.426504 46.7881172,168.426504 C45.4424141,168.464355 44.0621797,168.752227 42.7174922,169.148672 C39.3395234,170.142773 36.4023359,170.452559 33.2183516,168.585879 C30.0171016,166.707246 28.2803828,163.393242 28.6409297,159.742559 C29.4940547,151.119375 38.7392891,150.418125 45.6455391,149.435977 C53.0535078,148.382109 58.8882734,145.370918 64.5615547,140.656406 C69.9646797,136.16502 74.9513984,130.444453 81.8393672,128.131523 C89.5438984,125.544668 97.7511641,127.633477 103.728117,132.855996 C106.249914,135.060352 108.637648,137.414121 111.23257,139.42125 C111.23257,139.42125 111.23257,139.42125 111.23257,139.42125 C111.412336,139.61748 111.593117,139.811719 111.77593,140.002969 C113.235383,141.391523 114.487648,142.288008 117.733586,144.583008 C117.733586,144.583008 117.734602,144.583008 117.734602,144.583008 C119.27632,145.368926 120.900305,145.901836 122.593352,146.084121 C125.155773,146.359043 127.418586,145.562168 129.375695,144.137754 C129.375695,144.136758 129.376711,144.136758 129.377727,144.136758 C134.251711,143.652656 139.174445,142.816934 143.697023,144.309082 C150.399133,146.52041 151.63718,154.967285 148.220617,160.393008 C144.524758,166.261992 136.931945,167.774063 130.278586,166.924395 C130.275539,166.923398 130.273508,166.919414 130.275539,166.916426 C132.334211,163.50082 135.46132,160.792441 139.516711,162.47584 C143.611711,164.176172 147.178586,158.271328 143.044992,156.555059 C138.06843,154.48916 132.99132,155.210332 128.650539,158.40082 C124.063977,161.771602 121.880383,167.078789 120.740852,172.428809 C119.531242,178.109531 119.555617,184.60207 116.326945,189.66123 C113.691398,193.792031 109.023586,190.863516 105.376477,189.421172 C100.699523,187.571426 96.3536641,186.483691 91.3121016,187.409063 C86.1699922,188.351367 81.4249922,190.691191 76.3377266,191.842676 C73.6402266,192.452285 71.1712422,192.281953 68.9460078,191.549824 M44.8909297,135.538477 C44.8868672,135.46875 44.0174922,134.138965 44.6380391,131.384766 C44.6380391,131.384766 44.6380391,131.38377 44.6380391,131.38377 C46.6053047,120.948691 49.0864766,110.621191 52.0754609,100.418203 C52.0764766,100.416211 52.0785078,100.415215 52.0795234,100.414219 C53.9878828,100.134316 55.9003047,99.8842969 57.8137422,99.6512109 C57.8238984,99.7328906 58.1580391,101.504941 58.3113984,102.315762 C58.1793672,102.879551 51.5402266,123.497695 48.6396016,132.587051 C48.6385859,132.590039 47.3040547,135.392051 44.8929609,135.539473 C44.8919453,135.540127 44.8909297,135.540127 44.8909297,135.538477 M65.4674922,102.80584 C65.5731172,102.46916 64.8672578,100.224961 65.2775703,98.8662891 C65.2785859,98.8642969 65.2806172,98.8623047 65.2826484,98.8623047 C76.7846016,97.8313477 88.3515547,97.6410937 99.8748359,98.2945313 C99.8778828,98.2945313 99.8799141,98.2965234 99.8799141,98.2995117 C99.9347578,106.790215 100.097258,115.478145 102.520697,123.650098 C102.521555,123.654082 102.517492,123.658066 102.51343,123.656074 C100.78382,122.704805 98.9607734,121.91291 97.0067109,121.340156 C88.7618672,118.921641 79.8538203,120.384902 72.7241328,125.026699 C67.6358516,128.339707 63.4656953,132.922734 58.6810859,136.637168 C58.6760078,136.641152 58.6699141,136.63418 58.6739766,136.630195 C61.3338984,134.024414 63.3742891,130.742285 64.7108516,127.237031 C67.7099922,119.371875 66.8903828,110.946914 65.4674922,102.807832 C65.4674922,102.806836 65.4674922,102.806836 65.4674922,102.80584 M48.7563984,83.8023633 C48.7563984,83.8003711 48.7574141,83.799375 48.7584297,83.7983789 C53.5877266,81.0451758 59.5027266,80.208457 65.0175703,81.7145508 C69.3583516,82.8999023 71.2108516,76.2858398 66.8761641,75.1024805 C60.8098359,73.4469727 54.5413984,73.9270898 48.9747578,76.1463867 C48.9717109,76.1473828 48.9676484,76.1453906 48.9676484,76.1414063 C49.5049141,60.62625 51.2152266,44.9168555 63.2107734,34.053457 C66.4567109,31.1139844 70.2358516,29.1975 74.2363984,28.2611719 C74.6924141,28.1446289 74.9453047,28.1286914 75.4348359,28.0250977 C75.4490547,28.0221094 75.4612422,28.0171289 75.4744453,28.0121484 C80.4408516,27.1096875 85.6936641,27.678457 90.6621016,29.6975391 C100.894523,33.8552344 107.857648,43.1099414 111.571789,53.0698828 C113.699523,58.7775 114.893898,64.6753711 115.574367,70.6519336 C115.575383,70.6549219 115.573352,70.6569141 115.570305,70.6579102 C109.160695,71.1420117 102.751086,72.5026758 96.3953047,71.1360352 C92.0098359,70.1937305 90.1370234,76.8018164 94.5367109,77.7481055 C101.838039,79.3179492 108.848898,77.7590625 116.137023,77.3705859 C116.14007,77.3695898 116.143117,77.3725781 116.143117,77.3745703 C116.436633,82.3779492 116.484367,87.4072266 116.51891,92.3986523 C116.52093,92.6725781 116.266008,92.8797656 115.991789,92.8239844 C115.159992,92.6546484 113.407023,92.3149805 111.092414,92.3149805 L48.3278047,94.0661133 C48.3247578,94.0661133 48.3217109,94.063125 48.3225273,94.0611328 C48.5553047,90.7341797 48.6649922,87.2956641 48.7563984,83.8023633 M123.628273,112.866387 C124.599211,109.281445 125.571164,105.696504 126.542102,102.110566 C126.656867,101.688223 127.082414,101.42127 127.521164,101.498965 C128.533742,101.677266 129.54632,101.862539 130.556867,102.054785 C130.556867,102.054785 130.556867,102.054785 130.557883,102.054785 C132.112805,102.56877 132.463195,105.008203 131.618195,109.282441 C131.618195,109.282441 131.618195,109.282441 131.618195,109.282441 C131.464836,109.865156 131.332805,110.422969 131.21093,110.922012 C129.921086,116.163457 124.63882,129.018047 123.918742,130.244238 C123.918742,130.244238 122.539523,132.421699 120.911477,132.272285 C120.303117,132.216504 119.883664,131.63877 119.977102,131.04709 C120.939914,124.940039 122.165773,118.877813 123.628273,112.866387 M109.615695,202.213008 C108.328898,202.838555 106.184914,201.516738 104.715305,200.823457 C99.8403047,198.528457 96.0926484,197.404863 90.7311641,198.689824 C86.2969453,199.752656 82.1003828,201.635273 77.6417891,202.601484 C73.7367109,203.447168 72.7495234,202.40127 72.6662422,199.147031 C72.6662422,199.144043 72.6692891,199.142051 72.6713203,199.142051 C73.1100703,199.146035 73.5498359,199.13707 73.9885859,199.105195 C79.0138984,198.736641 83.6786641,196.748437 88.4236641,195.257285 C93.2946016,193.726289 96.9731953,193.564922 101.784211,195.357891 C105.428273,196.716563 109.153586,198.668906 113.139914,198.742617 C113.143977,198.742617 113.146008,198.747598 113.143977,198.750586 C112.121242,200.291543 110.773508,201.651211 109.615695,202.213008 M98.7810078,252.785684 C99.2360078,256.918477 99.5224141,261.156855 99.9672578,265.366348 C99.9855391,265.54166 99.8931172,265.711992 99.7306172,265.786699 C96.9874141,267.042773 93.0081953,267.055723 90.7128828,267.084609 C86.1679609,267.141387 81.7672578,266.472012 77.4630391,265.227891 C77.2832734,265.176094 77.1593672,265.014727 77.1563203,264.831445 C77.0892891,260.920781 76.8567109,257.008125 76.5215547,253.127344 C75.4023359,240.153223 73.8088203,227.203008 72.1807734,214.262754 C72.1005391,213.591387 73.1517109,213.426035 74.5390547,214.000781 C75.1849922,214.277695 75.8309297,214.543652 76.4636641,214.85543 C77.8154609,215.521816 79.1266328,216.263906 80.3849922,217.087676 C82.9382734,218.758125 85.2285078,220.793145 87.2607734,223.045313 C91.3649141,227.594473 89.2879609,237.604219 95.2831953,239.031621 C97.2504609,239.499785 97.5074141,240.943125 97.5124922,241.395352 C97.9380391,245.191465 98.3625703,248.988574 98.7810078,252.785684 M100.471008,272.629863 C100.71882,272.552168 100.97882,272.702578 101.025539,272.95459 C101.290617,274.396934 101.598352,275.827324 101.967023,277.237793 C102.812023,280.478086 104.060227,283.55502 105.56132,286.51541 C105.634445,286.659844 105.607023,286.837148 105.486164,286.947715 C102.791711,289.413047 97.8740547,289.70291 94.5671797,289.615254 C91.1526484,289.524609 87.7594453,289.045488 84.4363203,288.278496 C83.3313203,288.023496 79.1032734,287.185781 77.1715547,286.42875 C76.2188984,286.200645 75.4967891,285.555176 75.7496797,284.513262 C76.4453828,280.642441 76.8516328,276.713848 77.0425703,272.762344 C77.0557734,272.496387 77.3117109,272.311113 77.5747578,272.376855 C83.5039766,273.854062 89.6799922,274.317246 95.7747578,273.600059 C97.3824922,273.410801 98.9699141,273.101016 100.471008,272.629863 M159.166008,327.429961 C156.930617,328.515703 143.627961,338.158887 141.410852,339.249609 C141.40882,339.250605 141.406789,339.250605 141.406789,339.248613 C141.286945,338.875078 137.848039,326.95084 133.614914,317.724023 C132.492648,315.251719 131.309445,312.804316 130.069367,310.38082 C130.067336,310.376836 130.071398,310.371855 130.075461,310.373848 C136.373352,313.231641 153.474445,323.539219 159.166008,327.422988 C159.169055,327.42498 159.169055,327.428965 159.166008,327.429961 M255.708273,360.361816 L224.575305,310.577051 C221.513195,306.023906 216.809836,302.910117 211.329523,301.808437 C205.84718,300.704766 200.274445,301.752656 195.633039,304.755879 L163.247805,324.608027 C163.246789,324.609023 163.243742,324.609023 163.242727,324.608027 C154.281867,317.636367 135.594367,305.188184 128.178273,302.135156 C128.089914,302.099297 128.001555,302.067422 127.910148,302.037539 C126.057648,301.433906 124.392023,300.387012 123.201711,298.869961 C120.276711,295.141582 114.763898,288.736699 113.643664,286.824199 C113.39382,286.411816 111.556555,282.946406 111.46007,282.747187 C110.240305,280.213125 109.237883,277.584434 108.564523,274.824258 C108.039445,272.673691 105.915773,254.08459 105.550148,250.77457 C103.917023,236.013457 102.218898,221.259316 100.643664,206.492227 C100.643664,206.488242 100.647727,206.48625 100.650773,206.487246 C103.360461,207.789141 106.239758,209.355996 109.307961,209.33707 C113.070852,209.31416 115.641398,206.257148 117.868664,203.630449 C120.33257,200.722852 121.685383,197.77043 121.609211,194.22334 C121.609211,194.222344 121.609211,194.221348 121.610227,194.220352 C122.295773,193.286016 122.89093,192.263027 123.399758,191.202188 C126.090148,185.583223 126.281086,179.424375 127.655227,173.466738 C127.656242,173.46375 127.658273,173.461758 127.66132,173.462754 C134.821477,174.757676 142.56257,173.861191 148.605539,169.668633 C154.546945,165.545801 157.718742,158.728535 156.891008,151.609453 C156.044992,144.329004 150.982102,138.59748 143.559914,137.229844 C140.806555,136.722832 137.929289,136.85332 135.031711,137.105332 C135.027648,137.105332 135.024602,137.101348 135.026633,137.098359 C136.463742,134.335195 137.446867,131.403691 137.953664,129.029004 C139.220148,123.094277 139.311555,116.910527 138.773273,110.789531 C138.773273,110.789531 138.773273,110.789531 138.773273,110.788535 C138.648352,109.566328 138.78343,106.132793 139.201867,104.586855 C139.30343,104.209336 139.692414,103.978242 140.080383,104.068887 C142.810383,104.703398 145.531242,105.381738 148.238898,106.114863 C152.581711,107.29125 154.435227,100.67918 150.097492,99.5037891 C141.401711,97.1480273 132.834914,95.2873242 123.955305,93.9186914 C123.797883,93.8937891 123.666867,93.7862109 123.618117,93.6367969 C123.568352,93.4843945 123.515539,93.2931445 123.515539,93.1606641 C123.482023,88.2270117 123.383508,83.0154492 123.043273,77.7361523 C123.043273,77.7331641 123.04632,77.7301758 123.049367,77.7311719 C127.824836,78.6127148 132.386008,81.005332 132.579992,86.264707 C132.741477,90.6644531 139.733039,90.6853711 139.570539,86.264707 C139.284133,78.455332 132.911086,72.6849609 125.389367,71.0832422 C124.403195,70.8730664 123.416008,70.741582 122.42882,70.6489453 C122.425773,70.6479492 122.424758,70.6469531 122.423742,70.6439648 C120.578352,54.2223633 115.585539,38.0288672 101.975148,28.2083789 C101.971086,28.2063867 101.973117,28.2004102 101.97718,28.2004102 C106.869445,27.6157031 111.647961,25.9183594 115.720617,23.2209375 C120.051242,20.3521875 126.362336,14.9852344 123.255539,9.24673828 C120.280773,3.75128906 112.850461,1.23814453 106.957805,0.620566406 C102.52257,0.155390625 102.523586,6.91289062 106.86132,7.46572266 C109.390227,7.78746094 111.834836,8.56939453 114.023508,9.85236328 C116.431555,11.2638281 117.881867,11.9899805 115.759211,14.3407617 C112.623977,17.8121484 107.895227,20.0414062 103.352336,21.0394922 C93.6063984,23.1810937 83.8076484,17.9635547 74.1693672,21.2088281 C74.1693672,21.2088281 74.1683516,21.2088281 74.1683516,21.2088281 C70.6441328,21.8264062 67.2082734,23.0486133 64.0060078,24.9411914 C54.6297578,30.4854492 48.5766328,40.3019531 45.4586641,50.3804297 C42.4696797,60.041543 42.1355391,70.1469141 41.8826484,80.2323633 C41.8826484,80.2343555 41.8816328,80.2353516 41.8806172,80.2363477 C39.7498359,81.9127734 37.8424922,83.9009766 36.2459297,86.1740625 C33.9110078,89.4990234 38.7514766,92.6446875 41.5444453,90.4204102 C41.5485078,90.4174219 41.5525703,90.4204102 41.5525703,90.4243945 C41.4733516,92.0520117 41.3667109,93.6746484 41.2336641,95.2913086 C41.2336641,95.2933008 41.2326484,95.295293 41.2296016,95.295293 C40.1611641,95.4975 39.0927266,95.7056836 38.0263203,95.9218359 L38.0253047,95.9218359 C38.0080391,95.900918 34.0755391,96.7316602 34.0684297,96.7575586 C34.0684297,96.7575586 34.0684297,96.7575586 34.0684297,96.7575586 C32.1651484,97.175918 30.2659297,97.6102148 28.3717891,98.0753906 C27.4485859,98.3015039 25.9992891,99.2726953 25.9982734,99.2736914 C25.1319453,100.033711 24.8871797,100.825605 25.0446016,102.224121 C25.6834297,107.885918 26.3232734,113.547715 26.9631172,119.208516 C27.4729609,123.730781 27.7055391,128.463223 29.5194453,132.705586 C32.5785078,139.864512 40.1246016,143.216367 47.7316328,142.141582 C47.7377266,142.140586 47.7397578,142.149551 47.7336641,142.151543 C41.2935859,143.627754 34.2999922,143.218359 28.6449922,147.141973 C21.5701484,152.049727 19.3885859,162.362285 24.2483516,169.489336 C26.6960078,173.078262 30.6823359,175.64918 34.9835078,176.527734 C37.1620234,176.972988 39.4075703,177.01084 41.5931953,176.591484 C42.6199922,176.394258 43.5746797,176.044629 44.5760859,175.759746 C45.2788984,175.515703 45.9969453,175.327441 46.7312422,175.196953 C46.7322578,175.196953 46.7332734,175.196953 46.7342891,175.197949 C46.8317891,175.246758 46.9191328,175.285605 46.9983516,175.313496 C47.6178828,174.794531 49.3891328,176.638301 50.0665547,179.587734 C50.7003047,181.73332 51.4691328,183.841055 52.5731172,185.889023 C54.7790547,189.978984 58.5388984,193.85877 62.9568672,196.351992 C62.9578828,196.352988 62.9588984,196.353984 62.9588984,196.355977 C65.1465547,214.485879 67.5891328,232.615781 69.3177266,250.789512 C69.8021797,255.871582 70.1647578,261.042305 70.2135078,266.206055 C70.2074141,267.18123 70.2074141,267.800801 70.2145234,268.657441 C70.0956953,279.41625 68.4605391,290.083418 63.5012422,299.801309 C62.6785859,301.615195 59.6560859,307.899551 57.6776484,312.922852 C56.9697578,314.720801 55.7093672,316.291641 54.0071797,317.254863 C53.8751484,317.32957 53.7431172,317.415234 53.6110859,317.512852 C34.8128828,331.324688 16.2310078,347.290078 6.73999219,368.90332 C-1.87453906,388.518398 -3.29133594,414.26543 12.3442109,431.033672 C16.2188203,435.188379 21.2370234,438.503379 26.8219453,439.947715 C29.4615547,440.631035 32.4840547,440.776465 34.7671797,439.789336 C34.7692109,439.789336 34.7722578,439.789336 34.7732734,439.791328 C40.0514766,446.131465 46.7099141,451.419727 53.9106953,455.423027 C59.3808516,458.464102 65.2024141,460.731211 71.2108516,462.387715 C71.2128828,462.387715 71.2149141,462.389707 71.2149141,462.391699 C71.4749141,468.274629 71.7349141,474.156563 71.9949141,480.039492 C71.9949141,480.040488 71.9949141,480.04248 71.9928828,480.043477 C65.6157734,484.592637 59.1076484,488.954531 52.4542891,493.107246 C50.2260078,494.498789 50.1691328,497.648438 52.4542891,499.028027 C56.2852266,501.338965 67.2600703,503.021367 67.2621016,503.021367 C67.2621016,503.021367 67.2621016,503.021367 67.2621016,503.021367 C67.2641328,503.020371 80.4601484,493.041504 79.9756953,483.203086 C79.9299922,482.283691 79.0037422,479.698828 78.9742891,479.029453 C78.8747578,476.78625 78.7589766,474.542051 78.6604609,472.298848 C78.5385859,469.551621 78.4146797,466.804395 78.2907734,464.056172 C78.2907734,464.053184 78.2938203,464.050195 78.2968672,464.051191 C84.6638203,465.291328 91.1688984,465.92584 97.6384297,466.105137 C105.042336,466.311328 112.449289,465.927832 119.81968,465.232559 C119.822727,465.232559 119.824758,465.234551 119.824758,465.237539 C121.097336,476.907773 122.369914,488.579004 123.642492,500.250234 C123.792805,501.628828 124.611398,503.30127 126.208977,503.55627 C131.27593,504.366094 140.459211,509.003906 140.460227,509.003906 L140.460227,509.003906 C140.462258,509.003906 153.196164,503.308242 151.82507,499.683457 C150.348352,495.779766 136.750148,492.689883 129.74132,492.252598 C129.739289,492.252598 129.737258,492.250605 129.737258,492.248613 C128.914602,484.704199 127.558742,472.049824 126.736086,464.504414 C126.736086,464.502422 126.738117,464.50043 126.740148,464.499434 C131.898508,463.899785 137.048742,463.129805 142.028352,461.661563 C154.063508,458.115469 164.226867,450.175605 164.537648,437.106855 C164.537648,437.102871 164.542727,437.100879 164.545773,437.103867 C167.330617,439.81623 170.785773,442.681992 174.731477,442.745742 C178.78382,442.811484 182.093742,440.081191 183.801008,436.648652 C184.091477,436.064941 184.330148,435.488203 184.526164,434.919434 C184.52718,434.916445 184.530227,434.915449 184.533273,434.916445 C190.504133,438.300176 198.123352,438.136816 203.747883,433.130449 C209.062648,428.399004 209.911711,422.271035 208.352727,416.360215 C208.353742,416.358223 208.353742,416.357227 208.354758,416.355234 L249.772961,388.7475 C254.414367,385.745273 257.590227,381.131367 258.713508,375.756445 C259.837805,370.381523 258.770383,364.914961 255.708273,360.361816" id="Contour" fill="#430000"></path>
                </g>
            </g>
        </g>
    </g>
</svg>