<?xml version="1.0" encoding="UTF-8"?>
<svg width="816px" height="294px" viewBox="0 0 816 294" version="1.1" xmlns="http://www.w3.org/2000/svg" xmlns:xlink="http://www.w3.org/1999/xlink">
    <!-- Generator: Sketch 63.1 (92452) - https://sketch.com -->
    <title>Logo_v2.5</title>
    <desc>Created with Sketch.</desc>
    <g id="Symbols" stroke="none" stroke-width="1" fill="none" fill-rule="evenodd">
        <g id="Logo_v2.5" transform="translate(-8.000000, 0.000000)">
            <text id="html,-css,-javascrip" font-family="Helvetica" font-size="30" font-weight="normal" fill="#430000">
                <tspan x="9" y="205.700228">HTML, CSS, JAVASCRIPT</tspan>
            </text>
            <text id="true-webmaster" font-family="Helvetica" font-size="30" font-weight="normal" fill="#430000">
                <tspan x="542" y="205.700228">TRUE WEBMASTER</tspan>
            </text>
            <text id="DUCK" font-family="Helvetica" font-size="116.322075" font-weight="normal" fill="#430000">
                <tspan x="30" y="170.350682">DUCK</tspan>
            </text>
            <text id="NETS" font-family="Helvetica" font-size="116.322075" font-weight="normal" fill="#430000">
                <tspan x="501.837003" y="170.033783">CODE</tspan>
            </text>
            <g id="Group-27" transform="translate(351.500000, 0.020000)">
                <path d="M109.48975,253.19675 C109.48975,253.19675 115.76375,232.13725 126.22025,200.24475 C136.67675,168.3525 141.0335,134.1945 140.85925,118.16125 C140.685,102.128 137.37375,29.6295 82.30275,29.4547061 C63.306,29.395 44.65925,38.51725 36.46825,62.0445 C28.27725,85.57175 27.0575,122.1695 27.58025,145.5225 C28.103,168.8755 47.44775,214.187 52.50175,245.73075 C57.55575,277.27475 109.48975,253.19675 109.48975,253.19675" id="Fill-3" fill="#440000"></path>
                <path d="M38.559575,138.14475 C38.559575,138.14475 35.074325,80.053 48.086575,59.83725 C61.099325,39.621 75.506075,35.90325 92.933575,40.318 C110.361075,44.73325 125.929575,66.57575 128.718075,87.48875 C131.506575,108.40175 131.274075,142.79225 131.274075,142.79225 L124.767825,202.743 L51.804575,206.693 L38.559575,138.14475 Z" id="Fill-5" fill="#FFCA57"></path>
                <path d="M38.559575,138.14475 C38.559575,138.14475 97.813325,126.875 119.772075,134.54325 C123.954575,93.76275 116.286325,53.6795 92.933575,40.318 C110.361075,44.73325 125.929575,66.57575 128.718075,87.48875 C131.506575,108.40175 131.274075,142.79225 131.274075,142.79225 L129.531575,144.651 C129.531575,144.651 89.448075,135.24025 74.460575,143.6055 C66.095325,151.622 85.265325,170.44375 53.896075,195.5395 L38.559575,138.14475 Z" id="Fill-7" fill="#E9B328"></path>
                <path d="M187.03295,212.999 C185.8637,202.74775 178.89295,194.5625 168.6217,192.75175 C158.7412,191.00975 146.95895,194.66825 146.95895,194.66825 C137.3737,194.66825 131.6227,187.52275 123.25745,181.07475 C114.89245,174.6265 110.0997,172.53525 110.0997,172.53525 C108.06695,171.37325 92.7592,165.9125 79.8627,170.9665 C66.96645,176.02075 65.92095,180.3775 53.28595,190.3985 C40.65095,200.41925 36.2827,199.68125 36.2827,199.68125 C27.38845,201.76025 17.7312,201.18475 9.92095,206.7085 C0.15045,213.619 -2.86255,228.1405 3.8497,238.17675 C7.22895,243.2295 12.73545,246.8495 18.6747,248.087 C21.68395,248.7135 24.7837,248.76775 27.80245,248.177 C29.22145,247.8995 30.5397,247.40725 31.92245,247.006 C32.8927,246.66175 33.88495,246.39775 34.89845,246.21325 C34.89845,246.21325 34.9017,246.21325 34.90295,246.21425 C35.03745,246.28425 35.1577,246.3375 35.2672,246.37825 C36.1232,245.647 38.5692,248.2435 39.50495,252.3965 C40.3797,255.41725 41.44145,258.386 42.96645,261.26875 C45.78995,266.6065 50.45745,271.686 55.98195,275.1965 C57.05045,281.17125 60.45445,292.81225 70.74245,292.55275 C84.56845,292.20425 97.3487,285.9305 101.76345,286.74375 C106.17845,287.55675 113.96295,294.29575 123.0252,293.7145 C132.08745,293.13375 137.5482,279.88875 138.12895,276.6355 C138.34395,275.43175 138.59045,273.81525 138.8162,272.25525 C139.55095,271.147 140.2077,269.969 140.77995,268.7505 C144.4962,260.8385 144.7597,252.1665 146.6572,243.7765 C146.6582,243.77325 146.6617,243.77075 146.6652,243.7715 C156.5542,245.59525 167.2452,244.332 175.5902,238.4285 C183.7962,232.62325 188.17645,223.024 187.03295,212.999" id="Fill-9" fill="#C74623"></path>
                <path d="M114.282225,212.008525 C114.282225,212.008525 112.016475,208.784525 109.838475,205.996025 C107.659975,203.207525 106.526975,202.684775 104.958475,204.689025 C103.390225,206.693025 100.340225,204.950525 100.340225,204.950525 C97.116225,200.680525 101.037475,197.282275 103.564475,197.195025 C106.091225,197.107775 109.751225,198.850775 112.626725,203.643275 C115.502225,208.435775 114.282225,212.008525 114.282225,212.008525 M77.771475,206.693025 C75.854475,208.610025 74.373225,206.170025 73.589225,207.477275 C72.804725,208.784525 70.538975,211.834275 70.887725,218.718025 C70.887725,218.718025 65.310725,214.099775 67.576475,205.996025 C69.841975,197.892025 75.680225,199.547775 76.725725,200.506275 C77.771475,201.464775 79.688725,204.776025 77.771475,206.693025 M177.108725,212.967025 C174.407225,196.410775 155.149975,203.643275 140.597975,202.249025 C125.174475,200.593525 112.975225,178.286025 93.282225,178.286025 C73.589225,178.286025 67.750725,193.796525 53.547475,202.161775 C33.176225,214.159525 25.663225,207.041775 15.381225,214.709775 C5.098975,222.378025 12.156975,233.357275 12.156975,233.357275 C17.210975,240.938275 25.053225,239.021275 28.451725,237.888525 C31.849975,236.755525 34.986975,236.668525 34.986975,236.668525 C34.986975,236.668525 32.808475,231.701525 31.588725,230.568775 C29.953225,229.050275 28.538725,227.257525 23.223475,230.133025 C17.907975,233.008775 15.816725,228.564775 15.642225,226.473275 C15.468225,224.382025 17.210975,220.722025 24.443475,219.938025 C31.675725,219.153775 38.298225,222.290775 42.393725,229.610275 C46.489225,236.930025 46.053475,242.942275 50.758975,254.706025 C55.464475,266.469525 65.485225,270.303775 73.763225,269.955025 C82.041225,269.606525 90.493725,263.158275 100.688725,262.897025 C110.883975,262.635525 114.369475,267.602275 120.991975,269.170775 C127.614225,270.739275 131.274225,267.689525 132.755475,264.639525 C136.066725,258.975775 136.328225,243.552275 138.070725,237.714025 C139.813725,231.876025 142.950725,225.776275 150.444225,220.983525 C157.938225,216.191025 165.344975,218.544025 167.697725,219.850775 C170.050225,221.158025 171.008975,224.992025 168.830475,227.083275 C166.651975,229.174525 165.432225,227.693275 159.245475,227.606275 C153.058475,227.519025 150.183225,234.490025 150.183225,234.490025 C150.183225,234.490025 156.021225,234.925775 159.942475,234.664275 C163.863475,234.402775 179.809725,229.523275 177.108725,212.967025" id="Fill-11" fill="#FF7F00"></path>
                <path d="M93.97925,273.614725 C85.8755,275.618975 80.7345,280.324475 70.539,279.888725 C70.539,279.888725 69.5805,285.465475 74.896,285.203975 C80.2115,284.942725 93.45625,278.145975 100.776,278.494725 C108.0955,278.842975 116.3735,284.681475 120.0335,284.506975 C123.693,284.332725 126.83,279.365975 126.83,279.365975 C126.83,279.365975 120.0335,278.668975 113.32375,275.793225 C106.61425,272.917725 102.083,271.610475 93.97925,273.614725" id="Fill-13" fill="#FF7F00"></path>
                <path d="M6.667225,140.6428 C2.658975,145.81305 10.501225,181.42305 12.766725,186.30305 C15.032475,191.18255 17.995225,199.5478 34.028475,200.07055 C50.061725,200.59355 59.646975,185.9543 61.738225,181.94605 C63.829475,177.9378 66.269475,163.64705 64.700975,150.92505 C63.132475,138.2028 62.493475,138.95805 63.016225,138.4353 C63.538975,137.9123 78.526725,136.5763 88.344225,136.5763 C98.161975,136.5763 110.419225,137.62205 110.419225,137.62205 C110.419225,137.62205 110.012475,162.6593 113.962975,171.83805 C117.912975,181.01655 123.025225,193.09955 138.709975,196.46905 C154.394725,199.8383 160.087725,190.42755 161.365725,187.05805 C162.643725,183.6888 165.548225,168.4688 164.618975,159.87105 C163.689475,151.2733 164.502725,147.20705 164.734975,146.27755 C164.967225,145.34805 165.315975,145.2318 166.012975,145.34805 C166.710225,145.4643 175.772475,148.02055 177.747475,148.25255 C179.722725,148.48505 183.556725,147.43955 183.091975,142.9083 C182.627225,138.37705 177.863725,138.37705 175.539975,137.79605 C173.216225,137.2153 150.212225,131.05755 137.431975,129.8958 C124.651475,128.7338 96.186725,127.6883 83.290225,128.15305 C70.393975,128.61755 33.854225,130.70905 24.965975,132.33555 C18.200225,133.5738 9.915725,136.45255 6.667225,140.6428" id="Fill-15" fill="#430000"></path>
                <path d="M107.45655,110.0283 C116.04755,110.60105 129.06655,107.4723 137.4318,108.4018 C145.79705,109.3313 151.3738,111.42255 152.76805,116.0698 C154.1623,120.7173 153.2328,125.5968 158.34505,125.5968 C163.45705,125.5968 163.68955,120.4848 162.9923,117.23155 C162.29505,113.97855 160.2038,105.6133 147.88855,100.5013 C135.57305,95.38905 119.07505,101.19855 111.87155,100.96605 C104.6683,100.73355 99.7883,97.2483 98.1618,102.1278 C96.53505,107.00755 100.48555,109.5638 107.45655,110.0283" id="Fill-17" fill="#430000"></path>
                <path d="M21.2483,126.9912 C23.8978,129.6407 28.91655,128.38545 37.7463,117.4642 C46.57655,106.54295 59.5888,114.9082 62.3773,114.44345 C65.1658,113.97845 69.58055,109.09895 64.2363,106.0782 C58.8918,103.05745 42.62605,100.5012 31.0078,109.5637 C19.3893,118.62595 18.46005,124.20295 21.2483,126.9912" id="Fill-19" fill="#430000"></path>
                <path d="M69.4065,33.28905 C69.4065,33.28905 73.06625,26.31805 86.65975,27.7123 C100.25325,29.10655 111.40675,32.7663 121.34025,27.3638 C131.27425,21.96105 133.3655,17.08155 129.88,14.1188 C126.3945,11.1563 118.72625,10.6333 116.112,9.23905 C113.498,7.84505 110.5355,2.6168 115.58925,0.6998 C120.64325,-1.2172 133.01675,2.96505 138.07075,9.06505 C143.12475,15.16455 142.77625,20.91555 137.37375,26.1438 C131.97125,31.37205 127.61425,37.1233 111.058,39.38855 C94.502,41.6543 90.668,34.85755 81.78,35.20605 C72.89175,35.5548 68.01225,37.8203 69.4065,33.28905" id="Fill-21" fill="#430000"></path>
                <path d="M43.613525,140.11985 L32.808525,191.35685 C32.808525,191.35685 35.771275,190.6596 38.385275,188.39435 C40.999525,186.1286 54.244275,144.9996 54.244275,144.9996 L53.373025,139.2486 L43.613525,140.11985 Z" id="Fill-23" fill="#FFFFFF"></path>
                <path d="M147.307375,141.68845 L137.548125,186.1287 C137.548125,186.1287 142.602125,183.6887 145.390375,180.5517 C148.178875,177.4147 155.846875,143.4312 155.846875,143.4312 L147.307375,141.68845 Z" id="Fill-25" fill="#FFFFFF"></path>
            </g>
        </g>
    </g>
</svg>
