<?xml version="1.0" encoding="UTF-8"?>
<svg width="256px" height="512px" viewBox="0 0 256 512" version="1.1" xmlns="http://www.w3.org/2000/svg" xmlns:xlink="http://www.w3.org/1999/xlink">
    <!-- Generator: Sketch 63.1 (92452) - https://sketch.com -->
    <title>Duck</title>
    <desc>Created with Sketch.</desc>
    <defs>
        <path d="M75.835835,2.19482023 L79.4883175,34.9003144 C79.4883175,34.9003144 85.1330179,34.9003144 90.6116171,36.0625245 C96.0902163,37.2247346 101.734668,39.5489058 100.406605,43.2013883 C99.0785432,46.8536218 89.1174537,50.8380576 89.1174537,50.8380576 C89.1174537,50.8380576 78.1602553,45.6916607 75.6699829,45.3594584 C73.1797105,45.0275051 72.8475082,43.6994428 72.8475082,42.2052794 C72.8475082,40.711116 68.0330646,3.68898366 68.0330646,3.68898366 L68.0330646,3.68898366 L75.835835,2.19482023 Z M20.4688623,0.53463035 L28.4377339,3.39844358 C28.4377339,3.39844358 28.4377339,18.7136187 28.5622475,20.2077821 C28.6867611,21.7019455 29.8073837,20.3322957 29.68287,27.1805447 C29.5583564,34.0287938 17.4805354,44.6124514 17.4805354,44.6124514 C17.4805354,44.6124514 4.15757821,42.3712062 1.54279222,39.8809339 C-1.07199377,37.3906615 1.66730584,35.3984436 3.90855097,34.1533074 C6.06678703,32.9542874 20.6948314,22.5183723 21.7754297,21.7469863 L21.8385121,21.7019455 L20.4688623,0.53463035 Z" id="path-1"></path>
        <path d="M71.4897058,4.36349883 C78.7667798,12.5094288 103.663527,55.2163549 104.527153,58.1533821 C105.35741,60.9756078 109.092819,66.7861603 103.116165,72.2647595 C98.5065543,76.4902359 72.417296,94.3936557 60.7236411,102.362706 C60.4613535,101.809185 60.2011632,101.303451 59.9513525,100.861479 C58.3326755,97.9976654 53.9746988,91.0249027 45.2587455,90.0287938 C36.5427922,89.0326848 33.3054381,94.511284 32.3093292,97.0015564 C31.3132202,99.4918288 30.9396794,102.231128 30.9396794,102.231128 C30.9396794,102.231128 25.7101074,100.861479 22.0992125,103.227237 C18.4883175,105.592996 16.4960996,109.203891 16.4960996,109.203891 C16.4960996,109.203891 12.2626366,82.0599222 6.65952374,60.6435798 C3.8791791,50.0164847 1.62003434,42.7618594 0.0494362205,38.1494635 C5.79332349,34.4208778 51.1802384,4.05907819 53.7255969,2.78616031 C56.3819704,1.45809805 65.9279315,-1.8621821 71.4897058,4.36349883 Z" id="path-3"></path>
        <path d="M25.1310879,268.44447 C25.4485977,267.613217 26.365516,267.182898 27.2079751,267.469279 C30.4137027,268.559272 38.1313058,270.961637 44.2172825,271.089637 C52.203835,271.25798 56.4377961,269.844003 58.5445665,268.689264 C59.7167377,268.047023 61.1859984,268.413093 61.9412981,269.515785 L61.9412981,269.515785 L63.888442,272.35868 C64.2943564,272.951365 64.2729401,273.739038 63.8316638,274.305575 C63.0235704,275.342525 61.5421074,277.111614 59.407944,279.141684 C56.0044887,282.379038 47.6207377,285.865419 38.6557572,285.201264 C31.495477,284.670836 25.0235082,279.851412 22.7080529,277.932408 C22.1616872,277.479925 21.9647066,276.7311 22.2179673,276.068439 L22.2179673,276.068439 Z M51.4390475,247.100196 C52.2690553,246.851169 52.6841837,246.685068 53.1822381,250.171449 C53.6802926,253.65783 57.1666739,260.87962 57.1666739,261.294749 C57.1666739,261.709628 55.2573821,263.867947 48.2016934,264.366002 C41.1460047,264.864056 30.8527128,261.543776 28.94367,260.962546 C27.0343782,260.381566 27.6153588,259.385457 27.864386,257.642266 C28.0598724,256.275107 28.6635144,250.363698 28.9150319,247.876912 C28.9735533,247.297426 29.5348607,246.908943 30.0991564,247.052881 C42.9820825,250.337052 50.6312031,247.3425 51.4390475,247.100196 Z M23.38207,188.827823 C23.38207,187.997566 24.8762335,186.503402 30.8528872,189.823932 C36.8295409,193.144212 40.149821,198.290858 40.9798288,201.113083 C41.8100856,203.935309 42.8061946,211.240274 45.6284202,212.402235 C48.4506459,213.564445 48.9487004,214.394453 49.1148016,216.552772 C49.2577432,218.410764 50.8769183,234.53976 51.3249183,238.992865 C51.3941479,239.681177 50.9571051,240.315947 50.2912062,240.503465 C48.8480934,240.909628 46.0363268,241.513021 41.8100856,241.621597 C36.8474708,241.74885 31.884856,240.510686 29.8376031,239.925472 C29.2528872,239.758126 28.839751,239.240398 28.8088716,238.633021 C28.6875953,236.246344 28.3748171,229.822935 28.1135875,222.114297 C27.7813852,212.319309 23.38207,189.65783 23.38207,188.827823 Z M40.1497961,1.89124358 C52.601158,5.0456716 63.7244576,20.6514615 65.7166755,35.5930957 C67.7088934,50.53473 67.5427922,75.1052514 67.5427922,75.1052514 L62.8942008,117.937936 L10.7645821,120.760411 L1.30154708,71.7849712 C1.30154708,71.7849712 -1.18872529,30.2803486 8.10820856,15.8367689 C17.4053914,1.39318911 27.6984342,-1.26293541 40.1497961,1.89124358 Z" id="path-5"></path>
        <path d="M130.303782,90.590923 C128.658459,91.65153 126.605728,90.8369619 125.584965,89.3535066 C124.880218,88.3292576 124.175471,87.3050086 123.470724,86.2807595 C122.376996,84.6912187 123.232405,82.5129774 124.707891,81.5619424 C126.353214,80.5010864 128.406195,81.3159035 129.426708,82.7991097 C130.131455,83.8233588 130.836202,84.8478568 131.540949,85.8721058 C132.634926,87.4616467 131.779268,89.6396389 130.303782,90.590923 M127.647907,122.871079 C123.202023,122.871079 123.209245,115.973273 127.647907,115.973273 C132.09379,115.973273 132.086319,122.871079 127.647907,122.871079 M106.587673,85.5976778 C104.968996,86.641351 102.853261,85.8698646 101.868856,84.3605105 C100.683984,82.5441058 99.4991128,80.7277012 98.3142412,78.9112965 C97.2598599,77.2948607 98.0445447,75.1639346 99.5514086,74.1922304 C101.170086,73.1485572 103.285821,73.9205416 104.270226,75.4296467 C105.455097,77.2460514 106.639969,79.0627051 107.825089,80.8788607 C108.879471,82.4952965 108.094786,84.6262226 106.587673,85.5976778 M65.8371051,134.99746 C65.1477977,135.917367 64.4582412,136.837522 63.7686848,137.757429 C63.2004047,138.516215 62.6159377,139.048386 61.7077354,139.342487 C60.8202023,139.629616 59.8504903,139.417693 59.0498677,138.994845 C58.3040311,138.600635 57.6851984,137.733522 57.4650584,136.933647 C57.2538833,136.166892 57.3111595,134.945164 57.8127004,134.276028 C58.5020078,133.355872 59.1915642,132.435966 59.8808716,131.51581 C60.4494008,130.757273 61.0338677,130.224853 61.94207,129.931001 C62.8296031,129.643623 63.7993152,129.855795 64.5996887,130.278643 C65.3457743,130.672853 65.964358,131.539717 66.1847471,132.339841 C66.3959222,133.106596 66.3383969,134.328324 65.8371051,134.99746 M54.755144,124.806767 C54.7055875,124.816479 54.6580233,124.832417 54.609214,124.84437 C54.6049805,124.846363 54.6007471,124.848106 54.5967626,124.850098 C54.5977588,124.848853 54.5982568,124.848106 54.5995019,124.846861 C54.58207,124.851094 54.5648872,124.855577 54.5474553,124.860059 C54.5412296,124.86753 54.5350039,124.874503 54.5287782,124.881974 C54.5501946,124.872261 54.5736031,124.861055 54.5965136,124.850098 C54.5760934,124.87276 54.5467082,124.900153 54.5155798,124.929289 C54.5213074,124.929787 54.5300233,124.931779 54.5300233,124.931779 L54.5300233,124.932277 C54.5300233,124.934518 54.5108482,124.935763 54.5096031,124.938005 C54.4983969,124.956931 54.4779767,124.964651 54.4687626,124.981086 C54.4754864,124.97511 54.4969027,124.967639 54.5033774,124.96216 C54.5041245,124.960417 54.5130895,124.958923 54.5208093,124.95718 C54.5053696,124.98532 54.4842023,125.012962 54.4742412,125.040355 C54.4015253,126.922254 52.8879377,128.307592 51.0361712,128.390518 C49.187144,128.473195 47.5679689,126.746191 47.587144,124.941491 C47.6205136,121.814705 49.8159377,118.850285 52.9213074,118.15525 C54.8096809,117.7329 56.565572,118.715063 57.1639844,120.564339 C57.71807,122.2769 56.5177588,124.412308 54.755144,124.806767 M108.503689,1.0872965 C108.833152,0.604432685 109.556078,0.643529961 109.830257,1.15976342 L109.830257,1.15976342 L117.586957,15.7512654 C121.737245,24.7162459 129.928498,44.3428296 133.275673,56.5917323 C137.176934,70.8692109 145.560934,116.358269 146.723144,121.670767 C147.885105,126.983514 150.873432,135.948495 145.560934,143.585164 C140.248436,151.222082 129.125136,153.878456 116.673774,155.538472 C104.222412,157.198736 80.3157977,157.530689 65.7061167,153.712355 C51.0966848,149.89402 33.9967315,139.76683 25.6959066,122.666876 C17.3948327,105.567172 25.3637043,83.1547206 29.0161868,75.8497556 C32.6686693,68.5450397 45.7839377,42.646207 49.2703191,33.5151253 C52.2235331,25.7808374 56.7251984,11.1377868 58.0330895,6.83932763 C58.1964514,6.30217588 58.8556265,6.11216809 59.2817121,6.47724202 C61.3590973,8.2580358 67.4069728,12.3112031 80.4818988,13.5929463 C97.3676887,15.2484794 106.098086,4.61327315 108.503689,1.0872965 Z M161.664728,113.037865 C161.664728,113.037865 162.328884,115.196184 165.981118,119.346472 C169.6336,123.497009 168.803592,128.809507 167.807483,131.631981 C166.811374,134.454207 164.321102,133.624199 160.668619,130.635872 C157.016137,127.647546 155.023919,123.66311 155.19002,120.010627 C155.356121,116.358145 161.664728,113.037865 161.664728,113.037865 Z M44.6219268,24.5501946 C44.6219268,24.5501946 40.3055377,40.6540389 34.8269385,50.6151284 C29.3483393,60.5762179 16.8969774,82.3245136 16.398923,95.6058833 C15.9008685,108.887502 15.5686661,115.528062 19.0550475,123.496934 L22.5414288,131.465805 C22.5414288,131.465805 8.09784903,129.307735 3.44950661,113.03779 C-1.19908482,96.7680934 -0.534929183,84.9808872 6.10563113,68.3789883 C12.7464405,51.7770895 29.3483393,36.1715486 31.6725105,34.511284 C33.9966817,32.8510195 44.6219268,24.5501946 44.6219268,24.5501946 Z M178.266453,100.752529 C182.41699,100.420576 189.389753,106.895284 191.38197,113.03779 C193.374188,119.180545 191.713924,124.825245 187.065581,126.651362 C182.41699,128.477479 177.375682,127.668887 175.942282,124.161089 C169.633675,108.721401 174.116165,101.084482 178.266453,100.752529 Z M121.23929,6.99377432 C121.23929,6.99377432 141.368909,18.3661012 144.647851,20.4412451 C147.926792,22.5163891 149.691399,24.1261012 149.691399,24.1261012 L149.691399,24.1261012 L132.57003,35.507393 C128.997236,24.5113463 125.352224,14.0417432 121.23929,6.99377432 Z" id="path-7"></path>
    </defs>
    <g id="Symbols" stroke="none" stroke-width="1" fill="none" fill-rule="evenodd">
        <g id="Duck/Dark-Bg-Shadows-Copy">
            <g id="Duck">
                <g id="Feet" transform="translate(49.000000, 461.000000)">
                    <mask id="mask-2" fill="white">
                        <use xlink:href="#path-1"></use>
                    </mask>
                    <use fill="#FF7F00" xlink:href="#path-1"></use>
                    <path d="M7.85351562,1.49804687 C18.3522135,9.75455729 35.109375,14.1744792 58.125,14.7578125 C81.140625,15.3411458 97.3658854,10.921224 106.800781,1.49804687 L82.8066406,-16.8769531 L7.85351562,-16.8769531 L7.85351562,1.49804687 Z" id="Path-2" fill="#B74900" mask="url(#mask-2)"></path>
                </g>
                <path d="M119.647851,6.5618677 C123.258746,10.9198444 123.009718,15.0287938 119.149796,18.7642023 C115.389409,22.403287 112.33807,26.3968961 101.246092,28.0970976 C120.106246,42.6432322 121.543749,75.6459589 121.640068,84.507393 C121.764582,95.9626459 118.651742,120.367315 111.180925,143.153307 C103.710107,165.9393 99.2276171,204.538521 99.2276171,204.538521 C99.2276171,204.538521 103.46108,248.118288 105.328784,264.554086 C107.155886,280.632583 109.459624,283.722769 111.307449,287.23001 L111.429952,287.464591 C113.297656,291.075486 119.398823,298.546304 121.142014,300.663035 C122.885205,302.779767 126.994154,303.775875 134.838512,308.258366 C142.68287,312.740856 161.110886,326.188327 161.110886,326.188327 L161.110886,326.188327 L146.211195,336.09264 C161.269938,326.212748 188.833976,308.178454 192.488318,306.141634 C196.892862,303.686724 208.675088,298.919844 217.640068,307.884825 C226.605049,316.849805 250.019586,358.794708 252.005827,362.919844 C254.164146,367.402335 260.223726,379.106615 250.760691,386.577432 C244.459472,391.552079 220.712399,408.451739 205.546978,419.189503 C205.761261,420.051254 205.918126,420.859803 205.998045,421.565759 C206.371586,424.86537 206.4961,434.266148 197.157578,437.9393 C187.819057,441.612451 181.966917,437.378988 181.966917,437.378988 C181.966917,437.378988 179.352131,445.34786 172.628395,445.036576 C165.90466,444.725292 162.169251,439.68249 162.169251,439.68249 C162.169251,439.68249 161.484426,451.947082 152.270419,458.546304 C143.056411,465.145525 122.885205,469.005447 103.336567,468.75642 C83.7879284,468.507393 72.9552436,467.38677 56.8929868,459.915953 C41.6338428,452.818677 34.9150879,443.249183 34.2813603,442.309977 L34.2315082,442.235019 C34.2315082,442.235019 33.2353992,442.60856 30.8696405,442.857588 C28.5038817,443.106615 22.0291735,442.857588 13.9357883,435.511284 C5.84240311,428.164981 1.60894008,417.456809 0.239290272,403.884825 C-1.13035953,390.31284 3.47664436,376.118288 11.5700296,360.180545 C19.6634148,344.242802 41.2042708,328.180545 44.1925977,325.690272 C47.1809245,323.2 55.2743097,317.970428 56.0213914,316.351751 C56.7684732,314.733074 60.8774226,304.024903 62.7451268,301.410117 C64.6128311,298.795331 66.8540763,291.075486 68.0992125,283.604669 C69.3443486,276.133852 69.3443486,271.153307 68.8462942,256.08716 C68.3482397,241.021012 62.1225588,198.188327 58.5116638,175.651362 C54.9007689,153.114397 41.0797572,120.740856 40.7062163,104.056031 C40.3326755,87.3712062 41.2042708,61.2233463 47.0564109,44.4140078 C51.886632,30.5399683 61.8059856,23.6771852 72.7546039,21.7274147 C74.576491,20.5219981 77.7373123,19.3536433 82.9163331,19.8848249 C92.6283953,20.8809339 100.597267,23.4957198 107.694543,19.6357977 C114.791819,15.7758755 116.285983,12.2894942 113.795711,10.1727626 C111.305438,8.05603113 105.826839,7.68249027 103.959135,6.68638132 C102.09143,5.69027237 99.9746988,1.95486381 103.585594,0.585214008 C107.196489,-0.784435798 116.036956,2.20389105 119.647851,6.5618677 Z" id="Main-Contour" fill="#000000"></path>
                <g id="Laptop" transform="translate(142.000000, 309.000000)">
                    <mask id="mask-4" fill="white">
                        <use xlink:href="#path-3"></use>
                    </mask>
                    <use id="Laptop-BG" fill="#CCCCCC" xlink:href="#path-3"></use>
                    <g id="Lighten" mask="url(#mask-4)" fill="#FFFFFF">
                        <g transform="translate(8.000000, -15.000000)" id="Light">
                            <path d="M0.9921875,46.4677734 C29.2740885,27.1181641 47.3802083,18.4570313 55.3105469,20.484375 C67.2060547,23.5253906 96.8076172,74.3876953 97.8974609,83.4882812 C98.6240234,89.5553385 101.608398,84.5240885 106.850586,68.3945313 L66.0966797,0.248046875 L29.3261719,5.37890625 L0.9921875,46.4677734 Z"></path>
                        </g>
                    </g>
                    <g id="Darken" mask="url(#mask-4)" fill="#AFAFAF">
                        <g transform="translate(-10.000000, 34.000000)">
                            <path d="M11.9111328,0.549804688 C20.1090495,15.2314453 26.3066406,29.8125 30.5039062,44.2929687 C34.7011719,58.7734375 38.6901042,67.6090495 42.4707031,70.7998047 L20.7167969,83.0185547 L0.353515625,6.67675781 L11.9111328,0.549804688 Z" id="Path-5"></path>
                            <path d="M56.1679688,56.234375 C65.0983073,56.1354167 72.1705729,59.171224 77.3847656,65.3417969 C82.5989583,71.5123698 79.0628255,75.6136068 66.7763672,77.6455078 L56.1679688,56.234375 Z" id="Path"></path>
                            <path d="M64.5481339,20.9212576 C66.7487875,24.7849152 65.6064996,27.9582693 62.556165,29.6957323 C59.5058304,31.4331953 56.1937681,30.7971798 53.9928654,26.9335222 C51.7922117,23.0696156 52.3642272,16.9699424 54.5865463,15.7038879 C56.7827175,14.4530241 62.3474802,17.0576 64.5481339,20.9212576" id="Laptop-Logo"></path>
                        </g>
                    </g>
                </g>
                <g id="Neck-&amp;-Head" transform="translate(47.000000, 27.000000)">
                    <mask id="mask-6" fill="white">
                        <use xlink:href="#path-5"></use>
                    </mask>
                    <use fill="#FFCB57" xlink:href="#path-5"></use>
                    <g id="Shadow" mask="url(#mask-6)" fill="#E9B33A">
                        <g transform="translate(4.000000, -1.000000)">
                            <path d="M28.4589844,190.46582 C35.3867188,196.131836 39.0100911,203.347656 39.3291016,212.113281 C39.8076172,225.261719 39.8613281,254.40918 43.6572266,263.951172 C47.453125,273.493164 50.9023438,276.644531 49.3554688,280.618164 C48.3242188,283.267253 46.4248047,285.710612 43.6572266,287.948242 C53.5087891,285.695638 59.2633464,283.252279 60.9208984,280.618164 C62.5784505,277.984049 66.8570964,272.428385 73.7568359,263.951172 L60.9208984,184.780273 L29.4951172,185.860352 L28.4589844,190.46582 Z" id="shadow"></path>
                            <path d="M36.0625,0.243164062 C48.7311198,11.4202474 55.1992188,24.1715495 55.4667969,38.4970703 C55.734375,52.8225911 55.2320964,64.5247396 53.9599609,73.6035156 L68.53125,72.2929688 C68.8528646,46.3398438 66.7558594,30.039388 62.2402344,23.3916016 C57.7246094,16.7438151 48.9986979,9.02766927 36.0625,0.243164062 Z" id="Path-6"></path>
                            <path d="M52.3964844,74.1845703 C35.1946615,73.8968099 25.4628906,74.5429687 23.2011719,76.1230469 C19.8085938,78.4931641 23.2451172,93.1728516 19.8085938,100.673828 C17.5175781,105.674479 12.7529297,109.961914 5.51464844,113.536133 L0.73828125,70.5507812 C18.3554687,68.5214844 31.3694661,67.7513021 39.7802734,68.2402344 C48.1910807,68.7291667 52.3964844,70.710612 52.3964844,74.1845703 Z" id="Path-7"></path>
                        </g>
                    </g>
                </g>
                <g id="Body" transform="translate(7.000000, 305.000000)">
                    <mask id="mask-8" fill="white">
                        <use xlink:href="#path-7"></use>
                    </mask>
                    <use fill="#FFAB29" xlink:href="#path-7"></use>
                    <path d="M108.924316,-3.89599609 C120.215658,1.95068359 127.445312,6.63151042 130.613281,10.1464844 C128.979492,19.1923828 141.991211,33.0341797 131.65625,41.4130859 C131.65625,50.2402344 141.787598,85.3974609 144.354492,96.5307617 C146.921387,107.664063 150.944824,122.600098 152.074219,133.797852 C153.203613,144.995605 144.265137,151.188965 133.347656,156.28125 C122.430176,161.373535 91.3173828,159.393066 67.2163086,157.263184 C47.2494261,155.498651 34.0425204,140.552316 28.659809,133.251245 L22.2578125,133.251953 C20.3313802,133.251953 18.616862,131.436198 17.1142578,127.804687 C14.8603516,122.357422 11.0771484,109.328125 12.9736328,92.1865234 C14.8701172,75.0449219 24.5351562,61.0927734 30.0732422,51.7734375 C33.7652995,45.5605469 36.711263,36.5979818 38.9111328,24.8857422 L38.9111328,24.8857422 L46.4892578,19.1132812 C48.0257161,21.469401 48.4248047,24.1735026 47.6865234,27.2255859 C46.5791016,31.8037109 35.09375,59.03125 30.0732422,66.8896484 C25.0527344,74.7480469 21.1376953,87.6240234 19.1191406,102.304688 C18.1615294,109.269259 19.6331681,116.501528 23.5340567,124.001495 C21.5000811,118.917234 20.1431684,113.854785 23.8525391,120.37793 C29.2583008,129.884277 38.1303711,135.487305 72.4389648,145.375 C106.747559,155.262695 114.350586,145.066406 121,133.797852 C127.649414,122.529297 131.120117,87.8227539 128.595703,63.9785156 C126.91276,48.0823568 117.725098,28.2355143 101.032715,4.43798828 L101.032715,4.43798828 Z" id="Combined-Shape" fill="#E48F0B" mask="url(#mask-8)"></path>
                </g>
                <path d="M154.629553,152.265662 C153.794067,144.941522 148.813771,139.093367 141.475437,137.79967 C134.416012,136.555032 125.998145,139.168822 125.998145,139.168822 C119.149896,139.168822 115.040946,134.063763 109.064293,129.45676 C103.087639,124.849756 99.6635144,123.355592 99.6635144,123.355592 C98.2109385,122.525584 87.2744093,118.624075 78.0604016,122.23497 C68.8463938,125.845865 68.0993121,128.958705 59.0720747,136.118238 C50.0448374,143.277771 46.923779,142.750581 46.923779,142.750581 C40.5691019,144.236028 33.6693043,143.824635 28.089351,147.771468 C21.1083704,152.708682 18.955779,163.083654 23.7515455,170.254145 C26.1658646,173.864293 30.0999969,176.450689 34.343421,177.334736 C36.4935222,177.782487 38.7081214,177.821335 40.8649463,177.398985 C41.8787362,177.20076 42.8205572,176.849133 43.8084482,176.562503 C44.5019891,176.316713 45.2107206,176.127701 45.9346428,175.996215 C45.9358879,175.995966 45.936884,175.996215 45.9381292,175.996713 C46.0340047,176.046767 46.1201681,176.084868 46.1981136,176.114005 C46.8099735,175.591546 48.5573977,177.446549 49.2260358,180.413709 C49.8510942,182.572028 50.6096311,184.692993 51.6991253,186.752697 C53.7164949,190.5663 57.0512187,194.195623 60.9980514,196.703577 C61.7618179,200.972402 64.1935689,209.289413 71.5441058,209.104137 C81.4222693,208.85511 90.5531019,204.372619 93.70753,204.9536 C96.861958,205.534581 102.423483,210.349273 108.898191,209.934145 C115.3729,209.519016 119.274409,200.055981 119.689289,197.73181 C119.842939,196.871919 120.01925,195.716682 120.18037,194.602285 C120.70532,193.810378 121.174487,192.968666 121.58339,192.098067 C124.238269,186.445398 124.426783,180.249351 125.782487,174.255265 C125.783234,174.252775 125.785725,174.251032 125.788215,174.25153 C132.853616,175.554689 140.491779,174.651966 146.453989,170.434191 C152.316837,166.286643 155.446612,159.428184 154.629553,152.265662" id="Mouth-BG" fill="#B74900"></path>
                <path d="M102.651742,151.557977 C102.651742,151.557977 101.033065,149.254475 99.4766444,147.262257 C97.9202241,145.270039 97.1108856,144.896498 95.990263,146.328405 C94.8696405,147.760311 92.6906521,146.515175 92.6906521,146.515175 C90.3871502,143.464591 93.1887066,141.036576 94.9941541,140.974319 C96.7996016,140.912062 99.4143875,142.157198 101.468862,145.581323 C103.523337,149.005447 102.651742,151.557977 102.651742,151.557977 M76.5661385,147.760311 C75.1964887,149.129961 74.138123,147.38677 73.5778117,148.320623 C73.0175004,149.254475 71.3988233,151.433463 71.6478506,156.351751 C71.6478506,156.351751 67.6634148,153.05214 69.2820918,147.262257 C70.9007689,141.472374 75.0719751,142.655253 75.8190568,143.340078 C76.5661385,144.024903 77.9357883,146.390661 76.5661385,147.760311 M88.1459051,195.573541 C93.9357883,194.141634 97.1731424,195.075486 101.966917,197.129961 C106.760691,199.184436 111.616722,199.68249 111.616722,199.68249 C111.616722,199.68249 109.375477,203.231128 106.760691,203.355642 C104.145905,203.480156 98.2315082,199.308949 93.0019362,199.059922 C87.7723642,198.810895 78.3093292,203.666926 74.5116638,203.853696 C70.7139984,204.040467 71.3988233,200.056031 71.3988233,200.056031 C78.68287,200.367315 82.3560218,197.005447 88.1459051,195.573541 Z M87.6478506,127.464591 C101.717889,127.464591 110.433843,143.402335 121.453298,144.585214 C131.850185,145.581323 145.60894,140.414008 147.538901,152.242802 C149.468862,164.071595 138.075866,167.557977 135.27431,167.744747 C132.472753,167.931518 128.301547,167.620233 128.301547,167.620233 C128.301547,167.620233 130.356022,162.639689 134.776255,162.701946 C139.196489,162.764202 140.068084,163.822568 141.624504,162.328405 C143.180925,160.834241 142.4961,158.094942 140.815166,157.161089 C139.134232,156.227237 133.842403,154.546304 128.488318,157.970428 C123.134232,161.394553 120.892987,165.752529 119.647851,169.923735 C118.402714,174.094942 118.215944,185.114397 115.850185,189.161089 C114.791819,191.340078 112.177033,193.519066 107.445516,192.398444 C102.713998,191.277821 100.223726,187.729183 92.9396794,187.915953 C85.6556327,188.102724 79.6167222,192.709728 73.7023253,192.958755 C67.7879284,193.207782 60.6283953,190.468482 57.2665276,182.063813 C53.9046599,173.659144 54.215944,169.363424 51.2898739,164.133852 C48.3638039,158.90428 43.6322864,156.663035 38.4649712,157.223346 C33.297656,157.783658 32.0525198,160.398444 32.1770335,161.892607 C32.3015471,163.38677 33.7957105,166.561868 37.5933759,164.507393 C41.3910412,162.452918 42.4015938,163.733665 43.5700296,164.818677 C44.4416249,165.628016 45.9980451,169.176654 45.9980451,169.176654 C45.9980451,169.176654 43.7568,169.238911 41.3287844,170.048249 C38.9007689,170.857588 33.297656,172.227237 29.6867611,166.810895 C29.6867611,166.810895 24.6439595,158.966537 31.990263,153.487938 C39.3365665,148.009339 44.7043486,153.094724 59.2587455,144.522957 C69.4066054,138.546304 73.5778117,127.464591 87.6478506,127.464591 Z" id="Mouth" fill="#FF7F00"></path>
                <path d="M25.7645821,100.56965 C22.9007689,104.263471 28.5038817,129.705837 30.1225588,133.192218 C31.7412358,136.678599 33.8579673,142.655253 45.3132202,143.028794 C56.7684732,143.402335 63.6167222,132.943191 65.1108856,130.079377 C66.605049,127.215564 68.3482397,117.005447 67.2276171,107.915953 C66.1069946,98.8264591 65.6505276,99.3661012 66.0240685,98.9925603 C66.3976093,98.6190195 77.1057805,97.664249 84.1198817,97.664249 C91.1342319,97.664249 99.8917728,98.4113307 99.8917728,98.4113307 C99.8917728,98.4113307 99.601158,116.299953 102.423384,122.857588 C105.245858,129.415222 108.898092,138.048249 120.104318,140.455595 C131.310543,142.862693 135.378154,136.138957 136.291088,133.73186 C137.204271,131.324514 139.279415,120.450241 138.615508,114.307735 C137.951353,108.164981 138.532333,105.25958 138.698434,104.595673 C138.864535,103.931518 139.113563,103.848591 139.611617,103.931518 C140.109672,104.014444 146.58438,105.840809 147.995368,106.006661 C149.406605,106.172763 152.145905,105.425681 151.813952,102.188327 C151.481749,98.9509728 148.078543,98.9509728 146.418279,98.5358444 C144.758014,98.120965 128.322216,93.7214008 119.191384,92.891393 C110.060302,92.0611362 89.7229946,91.3140545 80.5089868,91.6462568 C71.294979,91.9782101 45.1887066,93.4723735 38.8385121,94.6345837 C34.0043953,95.5191284 28.085516,97.5758444 25.7645821,100.56965" id="Glasses" fill="#000000"></path>
                <path d="M43.1550008,78.3647377 C51.4558257,71.8900296 63.0771798,73.7161463 66.8955144,75.8744654 C70.7140981,78.0327844 67.55967,81.5191658 65.5674521,81.8511191 C63.5752342,82.1830724 54.2783004,76.2064187 47.9694444,84.0094381 C41.6608374,91.8122086 38.0750942,92.7089556 36.1822381,90.8160996 C34.1900202,88.8238817 34.8541759,84.8394459 43.1550008,78.3647377 Z M100.929395,72.2220327 C106.075791,72.3881339 117.863247,68.2375969 126.662126,71.8900794 C135.461005,75.5423128 136.955169,81.5189665 137.453223,83.8433868 C137.951278,86.167558 137.785426,89.8200405 134.132943,89.8200405 C130.480461,89.8200405 131.144616,86.3336591 130.148507,83.01313 C129.152398,79.6928498 125.167963,78.1986864 119.191309,77.5345307 C113.214655,76.8706241 103.91299,79.1058926 97.7749665,78.6967409 C92.7944218,78.3647875 89.9721961,76.5384218 91.1341572,73.0520405 C92.2963673,69.5656591 95.7827486,72.0559315 100.929395,72.2220327 Z" id="Eye-Bows" fill="#000000"></path>
                <path d="M59.1342319,99.5735409 L59.7568,103.68249 C59.7568,103.68249 50.293765,133.067704 48.4260607,134.686381 C46.5583564,136.305058 44.4416249,136.803113 44.4416249,136.803113 L44.4416249,136.803113 L52.1614693,100.196109 L59.1342319,99.5735409 Z M126.247072,101.316732 L132.34824,102.561868 C132.34824,102.561868 126.86964,126.842023 124.877423,129.083268 C122.885205,131.324514 119.27431,133.067704 119.27431,133.067704 L119.27431,133.067704 L126.247072,101.316732 Z" id="Blik" fill="#FFFFFF"></path>
            </g>
        </g>
    </g>
</svg>